<svg width="125" height="32" viewBox="0 0 125 32" fill="none" xmlns="http://www.w3.org/2000/svg">
<path d="M0 10C0 4.47715 4.47715 0 10 0H32V21C32 27.0751 27.0751 32 21 32H0V10Z" fill="#5C3FEE"/>
<path d="M14.4691 9.8815C13.9036 9.8815 13.3947 9.90361 12.9423 9.94774C12.4986 9.99194 12.1202 10.0979 11.807 10.2657C11.4938 10.4335 11.2546 10.6852 11.0892 11.0208C10.924 11.3476 10.8413 11.798 10.8413 12.372V13.0477H24.3606V16.9291H10.8413V26H6V11.9614C6 11.0252 6.13484 10.1862 6.40453 9.44438C6.68292 8.70251 7.144 8.07986 7.78777 7.57642C8.43155 7.06421 9.28411 6.67562 10.3455 6.41067C11.4068 6.13689 12.7292 6 14.3125 6H25V9.8815H14.4691Z" fill="white"/>
<path d="M40.6231 16.7877C40.6231 17.3557 40.6751 17.8214 40.7793 18.1847C40.8835 18.5414 41.0527 18.8254 41.2871 19.0368C41.5215 19.2481 41.8242 19.3935 42.1953 19.4727C42.5729 19.552 43.0352 19.5916 43.582 19.5916H50.457V22.6135H42.8398C41.7852 22.6135 40.8867 22.5277 40.1445 22.3559C39.4089 22.1776 38.8066 21.9068 38.3379 21.5435C37.8691 21.1736 37.5273 20.7079 37.3125 20.1465C37.1042 19.585 37 18.9179 37 18.1451V9H40.6231V16.7877ZM56.9316 9V16.6688C56.9316 17.1774 56.974 17.6398 57.0586 18.0559C57.1432 18.4654 57.2995 18.8188 57.5274 19.116C57.7552 19.4067 58.0742 19.6345 58.4844 19.7997C58.8945 19.9582 59.4284 20.0374 60.0859 20.0374C60.5807 20.0374 61.0983 19.9681 61.6387 19.8294C62.1856 19.6907 62.7259 19.5057 63.2598 19.2746C63.7936 19.0434 64.3014 18.7792 64.7832 18.4819C65.2715 18.1781 65.7077 17.8643 66.0918 17.5407V9H69.7051V22.6135H66.0918V20.7509C65.6361 21.0151 65.1511 21.2826 64.6367 21.5534C64.1224 21.8176 63.5755 22.0587 62.9961 22.2767C62.4167 22.488 61.8014 22.6598 61.1504 22.7919C60.4994 22.9306 59.8125 23 59.0899 23C58.1849 23 57.3744 22.8877 56.6582 22.6631C55.9421 22.4451 55.3366 22.1347 54.8418 21.7318C54.347 21.3222 53.9662 20.8301 53.6992 20.2555C53.4388 19.6742 53.3086 19.0268 53.3086 18.3135V9H56.9316ZM80.252 11.903C79.8288 11.903 79.4479 11.9196 79.1094 11.9526C78.7774 11.9856 78.4942 12.0649 78.2598 12.1904C78.0254 12.3159 77.8464 12.5041 77.7227 12.7551C77.599 12.9995 77.5371 13.3364 77.5371 13.7657V14.271H87.6543V17.1741H77.5371V22.6135H73.9141V13.4586C73.9141 12.7584 74.015 12.1309 74.2168 11.5761C74.4251 11.0212 74.7702 10.5555 75.252 10.179C75.7337 9.79594 76.3718 9.50531 77.166 9.30715C77.9603 9.10238 78.9499 9 80.1348 9H88.1328V11.903H80.252ZM97.5762 11.903C97.153 11.903 96.7721 11.9196 96.4336 11.9526C96.1016 11.9856 95.8184 12.0649 95.584 12.1904C95.3496 12.3159 95.1706 12.5041 95.0469 12.7551C94.9232 12.9995 94.8613 13.3364 94.8613 13.7657V14.271H104.978V17.1741H94.8613V22.6135H91.2383V13.4586C91.2383 12.7584 91.3392 12.1309 91.541 11.5761C91.7494 11.0212 92.0944 10.5555 92.5762 10.179C93.058 9.79594 93.696 9.50531 94.4902 9.30715C95.2845 9.10238 96.2741 9 97.459 9H105.457V11.903H97.5762ZM124.5 17.3821C124.5 18.2673 124.285 19.0565 123.855 19.7501C123.426 20.4437 122.814 21.0316 122.019 21.5137C121.232 21.9894 120.275 22.3526 119.148 22.6036C118.029 22.8546 116.772 22.9801 115.379 22.9801C114.767 22.9801 114.122 22.9537 113.445 22.9009C112.775 22.8546 112.117 22.7853 111.473 22.6928C110.835 22.607 110.236 22.5078 109.676 22.3956C109.116 22.2767 108.644 22.1479 108.26 22.0092V18.7792C108.676 18.9575 109.139 19.1259 109.646 19.2845C110.161 19.443 110.717 19.585 111.316 19.7105C111.915 19.8294 112.557 19.9252 113.24 19.9979C113.93 20.0639 114.659 20.0969 115.428 20.0969C116.15 20.0969 116.785 20.054 117.332 19.9681C117.885 19.8822 118.364 19.7666 118.768 19.6214C119.171 19.4761 119.506 19.3109 119.773 19.1259C120.04 18.9344 120.255 18.7395 120.418 18.5414C120.581 18.3366 120.695 18.1351 120.76 17.937C120.831 17.7388 120.867 17.5539 120.867 17.3821V16.1833C120.203 16.6787 119.412 17.0882 118.494 17.4119C117.576 17.7289 116.531 17.8874 115.359 17.8874C113.999 17.8874 112.863 17.7553 111.951 17.4911C111.046 17.2203 110.32 16.8339 109.773 16.3319C109.227 15.8233 108.836 15.2057 108.602 14.4791C108.374 13.7525 108.26 12.9335 108.26 12.0219V9H111.902V11.6553C111.902 12.1904 111.971 12.6659 112.107 13.0821C112.251 13.4982 112.472 13.8483 112.771 14.1323C113.077 14.4097 113.471 14.6211 113.953 14.7664C114.435 14.9117 115.018 14.9844 115.701 14.9844C116.281 14.9844 116.827 14.9117 117.342 14.7664C117.863 14.6211 118.341 14.4296 118.777 14.1918C119.214 13.954 119.607 13.6832 119.959 13.3793C120.311 13.0755 120.613 12.765 120.867 12.448V9H124.5V17.3821Z" fill="#5C3FEE"/>
</svg>
